REM DIRINDEX 1\2,1\3
REM DIRNAME cjc103,folder01,folder02
TITLE ""
FILE "Track77.mp3" MP3
  TRACK 01 AUDIO
    TITLE "2:cjc103_724"
    INDEX 01 00:00:00
  TRACK 02 AUDIO
    TITLE "0:"
    INDEX 01 00:01:52
  TRACK 03 AUDIO
    TITLE "3:cjc103_725"
    INDEX 01 00:02:38
  TRACK 04 AUDIO
    TITLE "0:"
    INDEX 01 00:04:13
  TRACK 05 AUDIO
    TITLE "3:cjc103_726"
    INDEX 01 00:05:18
  TRACK 06 AUDIO
    TITLE "0:"
    INDEX 01 00:06:35
